<svg height="128" viewBox="0 0 64 64" width="128" xmlns="http://www.w3.org/2000/svg"><g fill="#fff" fill-rule="evenodd" transform="translate(8 13)"><path d="m41.0854 25.8883c4.749-8.221 1.897-18.717-6.327-23.467-2.58-1.484-5.5-2.28-8.457-2.304l-.043 5.729c1.966.015 3.918.548 5.638 1.538 5.469 3.156 7.358 10.163 4.232 15.645v-.002l-6.198-3.577 1.322 17.781 16.075-7.741z"/><path d="m6.9145 12.1119c-4.749 8.221-1.897 18.717 6.327 23.467 2.58 1.484 5.5 2.28 8.457 2.304l.044-5.729c-1.967-.015-3.919-.548-5.639-1.538-5.469-3.157-7.358-10.163-4.232-15.645v.002l6.198 3.577-1.322-17.781-16.075 7.741z"/></g></svg>